@startuml
abstract "GUI::Component" as C_0000265092519911491147
abstract C_0000265092519911491147 {
+Component() : void
+~Component() : void
+Draw() : void
{abstract} +isSelectable() const = 0 : bool
+isSelected() const : bool
+select() : void
+deselect() : void
+ToggleVisible() : void
+SetVisible() : void
+GetVisible() : bool
+SetPosition() : void
+SetPosition() : void
+GetPosition() : Vector2
+GetSize() : Vector2
#UpdateMouseCursorWhenHover() : void
#UpdateMouseCursorWhenHover() : void
#GetHoverStatus() : bool
#GetHoverStatus() : bool
#mPosition : Vector2
#mVisible : bool
}
class "GUI::Container" as C_0002094582007680481506
class C_0002094582007680481506 {
+Container() : void
+pack() : void
+UnpackAll() : void
+Draw() : void
+isSelectable() const : bool
+GetChildren() : Core::Deque<Component::Ptr>
+DrawCurrent() : void
+GetSize() : Vector2
}
class "GUI::Node" as C_0000827263143060756743
class C_0000827263143060756743 {
+SetShape() : void
+GetShape() const : GUI::Node::Shape
+Node() : void
+Node() : void
+~Node() : void
+isSelectable() const : bool
+Draw() : void
+SetActive() : void
+IsActive() : bool
+SetValue() : void
+GetValue() const : int
+SetLabel() : void
+ClearLabel() : void
+AnimationOnNode() : void
+SetRadius() : void
+SetValueFontSize() : void
+SetLabelFontSize() : void
+SetNodeState() : void
+GetNodeState() const : GUI::Node::State
+SetReachable() : void
+GetReachable() const : bool
}
enum "GUI::Node::State" as C_0001113193908913246239
enum C_0001113193908913246239 {
Default
Active
ActiveBlue
ActiveGreen
ActiveRed
Iterated
Hide
StateCount
}
enum "GUI::Node::Shape" as C_0002284700369052075848
enum C_0002284700369052075848 {
Circle
Square
ShapeCount
}
abstract "GUI::LinkedList" as C_0000932535397199933171
abstract C_0000932535397199933171 {
+SetShape() : void
+GetShape() const : GUI::Node::Shape
+LinkedList() : void
+LinkedList() : void
+~LinkedList() : void
+isSelectable() const : bool
{abstract} +Draw() = 0 : void
+size() const : std::size_t
+SetShowHeadAndTail() : void
+SetOrientation() : void
+GetList() : std::vector<GUI::Node> &
+GenerateNode() : GUI::Node
+Import() : void
+InsertNode() : void
+DeleteNode() : void
+Relayout() : void
#GetNodeDefaultPosition() : Vector2
#fonts : FontHolder *
#mDisplayHeadAndTail : bool
#mOrientation : GUI::LinkedList::Orientation
#mShape : GUI::Node::Shape
{static} +mNodeDistance : const float
}
enum "GUI::LinkedList::ArrowType" as C_0000972293785554013667
enum C_0000972293785554013667 {
Default
Hidden
Active
Skip
ArrowTypeCount
}
enum "GUI::LinkedList::Orientation" as C_0001523930973413022405
enum C_0001523930973413022405 {
Horizontal
Vertical
OrientationCount
}
class "GUI::CircularLinkedList" as C_0000270407177428106372
class C_0000270407177428106372 {
+CircularLinkedList() : void
+CircularLinkedList() : void
+~CircularLinkedList() : void
+isSelectable() const : bool
+Draw() : void
+Import() : void
+InsertNode() : void
+DeleteNode() : void
+SetCircularArrowType() : void
+GetCircularArrowType() : GUI::LinkedList::ArrowType
+SetCircularEnds() : void
+GetCircularEnds() : std::pair<std::size_t,std::size_t>
+SetArrowType() : void
+GetArrowType() : GUI::LinkedList::ArrowType
+ResetArrow() : void
}
class "GUI::DoublyLinkedList" as C_0002300769237886065887
class C_0002300769237886065887 {
+DoublyLinkedList() : void
+DoublyLinkedList() : void
+~DoublyLinkedList() : void
+isSelectable() const : bool
+Draw() : void
+Import() : void
+InsertNode() : void
+DeleteNode() : void
+SetArrowTypeNext() : void
+SetArrowTypePrev() : void
+GetArrowTypeNext() : GUI::LinkedList::ArrowType
+GetArrowTypePrev() : GUI::LinkedList::ArrowType
+ResetArrow() : void
}
class "GUI::DynamicArray" as C_0000251369963602189305
class C_0000251369963602189305 {
+DynamicArray() : void
+DynamicArray() : void
+isSelectable() const : bool
+~DynamicArray() : void
+Draw() : void
+GetLength() const : std::size_t
+GetCapacity() const : std::size_t
+operator[]() : GUI::Node &
+operator[]() const : const GUI::Node &
+SetShape() : void
+GetShape() const : GUI::Node::Shape
+Reserve() : void
+Resize() : void
+Clear() : void
+GetList() : std::vector<GUI::Node> &
+GenerateNode() : GUI::Node
+Import() : void
+InsertNode() : void
+Relayout() : void
+DeleteNode() : void
+GetCapacityFromLength() : std::size_t
{static} +mNodeDistance : const float
}
class "GUI::SinglyLinkedList" as C_0001184481278351232005
class C_0001184481278351232005 {
+SinglyLinkedList() : void
+SinglyLinkedList() : void
+~SinglyLinkedList() : void
+isSelectable() const : bool
+Draw() : void
+Import() : void
+InsertNode() : void
+DeleteNode() : void
+SetArrowType() : void
+GetArrowType() : GUI::LinkedList::ArrowType
+ResetArrow() : void
}
class "GUI::Button" as C_0000273483278369364143
class C_0000273483278369364143 {
+Button() : void
+Button() : void
+~Button() : void
+Draw() : void
+SetAction() : void
+isSelectable() const : bool
+SetButtonHoverColor() : void
+SetButtonColor() : void
+SetTextColor() : void
+SetSize() : void
+SetText() : void
+SetFontSize() : void
+GetFontSize() const : float
+SetTextAlignment() : void
+EnableFitContent() : void
+DisableFitContent() : void
+GetSize() : Vector2
+SetActionOnHover() : void
}
enum "GUI::Button::TextAlignment" as C_0000727865688580364101
enum C_0000727865688580364101 {
Left
Center
Right
AlignmentCount
}
class "GUI::CodeHighlighter" as C_0001652826591693436854
class C_0001652826591693436854 {
+CodeHighlighter() : void
+~CodeHighlighter() : void
+Draw() : void
+isSelectable() const : bool
+InitButtons() : void
+AddCode() : void
+Highlight() : void
+ToggleShowCode() : void
+ToggleShowAction() : void
+SetShowCode() : void
+SetShowAction() : void
+AddActionDescription() : void
}
class "GUI::Footer<T>" as C_0001894949210869383862
class C_0001894949210869383862 {
+Footer<T>() : void
+~Footer<T>() : void
+Draw() : void
}
class "GUI::OperationContainer" as C_0001640896409330920983
class C_0001640896409330920983 {
+OperationContainer() : void
+~OperationContainer() : void
+DrawCurrent() : void
+SetVisible() : void
}
class "GUI::OperationList" as C_0000596841766318363256
class C_0000596841766318363256 {
+ShowOptions() : void
+HideAllOptions() : void
+ToggleOperations() : void
+Draw() : void
+OperationList() : void
+OperationList() : void
+~OperationList() : void
+AddOperation() : void
+InitActionBar() : void
+GetSize() : Vector2
}
abstract "GUI::InputField" as C_0001194216743065148231
abstract C_0001194216743065148231 {
+InputField() : void
+~InputField() : void
{abstract} +ExtractValue() = 0 : std::string
+Draw() : void
{abstract} +DrawField() = 0 : void
+isSelectable() const : bool
+SetLabelSize() : void
+SetInputFieldSize() : void
+GetSize() : Vector2
+SetLabel() : void
+GetLabel() const : std::string
#IsClicked() const : bool
#SetEditMode() : void
#GetEditMode() const : bool
#AllFieldDisableEdit() : void
+Randomize() : void
#editMode : bool
#mFieldIndex : std::size_t
#labelFontSize : float
#inputFieldSize : Vector2
#label : std::string
#fonts : FontHolder *
#extractedValue : std::string
{static} +fields : std::vector<bool>
}
class "GUI::OptionInputField" as C_0000699395328849803664
class C_0000699395328849803664 {
+OptionInputField() : void
+~OptionInputField() : void
+SetOption() : void
+SetNoFieldOption() : void
+ToggleInputFields() : void
+DrawCurrent() : void
+SetVisible() : void
+GetSize() : Vector2
}
class "GUI::NavigationBar" as C_0000304661703129034140
class C_0000304661703129034140 {
+NavigationBar() : void
+NavigationBar() : void
+~NavigationBar() : void
+SetHomepageID() : void
+SetDirectLink() : void
+SetCategory() : void
+InsertTitle() : void
+SetActiveTitle() : void
+ClearTitle() : void
+SetVisableTitle() : void
+isSelectable() const : bool
+Draw() : void
}
class "GUI::NavigationBar::TitleInfo" as C_0000769294623722548185
class C_0000769294623722548185 {
+stateID : States::ID
+abbrTitle : std::string
+titleName : std::string
}
class "GUI::IntegerInputField" as C_0002069445512065308063
class C_0002069445512065308063 {
+IntegerInputField() : void
+~IntegerInputField() : void
+ExtractValue() : std::string
+DrawField() : void
+SetConstraint() : void
+isSelectable() const : bool
+Randomize() : void
}
class "GUI::StringInputField" as C_0000362951263854387747
class C_0000362951263854387747 {
+StringInputField() : void
+~StringInputField() : void
+ExtractValue() : std::string
+DrawField() : void
+isSelectable() const : bool
}
class "GUI::Card" as C_0000413334043765638182
class C_0000413334043765638182 {
+Card() : void
+Card() : void
+~Card() : void
+SetLink() : void
+SetStateID() : void
+SetText() : void
+isSelectable() const : bool
+Draw() : void
}
C_0002094582007680481506 ..> C_0000265092519911491147
C_0002094582007680481506 o-- C_0000265092519911491147 : #mChildren
C_0000265092519911491147 <|-- C_0002094582007680481506
C_0000265092519911491147 <|-- C_0000827263143060756743
C_0001113193908913246239 --+ C_0000827263143060756743
C_0002284700369052075848 --+ C_0000827263143060756743
C_0000932535397199933171 ..> C_0000827263143060756743
C_0000932535397199933171 o-- C_0000827263143060756743 : #list
C_0002094582007680481506 <|-- C_0000932535397199933171
C_0000972293785554013667 --+ C_0000932535397199933171
C_0001523930973413022405 --+ C_0000932535397199933171
C_0000270407177428106372 ..> C_0000827263143060756743
C_0000932535397199933171 <|-- C_0000270407177428106372
C_0002300769237886065887 ..> C_0000827263143060756743
C_0000932535397199933171 <|-- C_0002300769237886065887
C_0000251369963602189305 ..> C_0000827263143060756743
C_0000251369963602189305 o-- C_0000827263143060756743 : -list
C_0002094582007680481506 <|-- C_0000251369963602189305
C_0001184481278351232005 ..> C_0000827263143060756743
C_0000932535397199933171 <|-- C_0001184481278351232005
C_0000265092519911491147 <|-- C_0000273483278369364143
C_0000727865688580364101 --+ C_0000273483278369364143
C_0001652826591693436854 o-- C_0000273483278369364143 : -mButtonShowCode
C_0001652826591693436854 o-- C_0000273483278369364143 : -mButtonShowAction
C_0000265092519911491147 <|-- C_0001652826591693436854
C_0002094582007680481506 <|-- C_0001894949210869383862
C_0002094582007680481506 <|-- C_0001640896409330920983
C_0000596841766318363256 ..> C_0000273483278369364143
C_0000596841766318363256 ..> C_0002094582007680481506
C_0000596841766318363256 o-- C_0002094582007680481506 : -buttons
C_0000596841766318363256 o-- C_0002094582007680481506 : -optionContainers
C_0000596841766318363256 o-- C_0000273483278369364143 : -toggleButton
C_0002094582007680481506 <|-- C_0000596841766318363256
C_0000265092519911491147 <|-- C_0001194216743065148231
C_0000699395328849803664 ..> C_0001194216743065148231
C_0000699395328849803664 o-- C_0002094582007680481506 : -mInputField
C_0002094582007680481506 <|-- C_0000699395328849803664
C_0000265092519911491147 <|-- C_0000304661703129034140
C_0000769294623722548185 --+ C_0000304661703129034140
C_0001194216743065148231 <|-- C_0002069445512065308063
C_0001194216743065148231 <|-- C_0000362951263854387747
C_0000265092519911491147 <|-- C_0000413334043765638182

'Generated with clang-uml, version 0.3.4
'LLVM version clang version 15.0.7 (https://github.com/llvm/llvm-project.git 8dfdcc7b7bf66834a761bd8de445840ef68e4d1a)
@enduml
