@startuml
abstract "State::State" as C_0000095408157978504173
abstract C_0000095408157978504173 {
+State() : void
+~State() : void
{abstract} +Draw() = 0 : void
{abstract} +Update() = 0 : bool
}
class "State::State::Context" as C_0001966568901612235243
class C_0001966568901612235243 {
+Context() : void
+Context() : void
+fonts : FontHolder *
+textures : TextureHolder *
+categories : CategoryInfo *
+dsInfo : DSInfo *
}
class "State::ArrayState<T>" as C_0001477210917833349544
class C_0001477210917833349544 {
+ArrayState<T>() : void
+~ArrayState<T>() : void
+Draw() : void
+Update() : bool
+SetCurrentAction() : void
+SetCurrentError() : void
+ClearError() : void
+ClearAction() : void
+Success() : void
}
class "State::ArrayState::IntegerInput" as C_0000862137238358355487
class C_0000862137238358355487 {
+label : std::string
+width : int
+minValue : int
+maxValue : int
}
class "State::DynamicArrayState" as C_0000987619691049981455
class C_0000987619691049981455 {
+DynamicArrayState() : void
+~DynamicArrayState() : void
}
class "State::StateStack" as C_0001431867059143642128
class C_0001431867059143642128 {
+StateStack() : void
+Update() : void
+Draw() : void
+PushState() : void
+PopState() : void
+ClearStates() : void
+IsEmpty() const : bool
+RegisterState<T>() : void
}
enum "State::StateStack::Action" as C_0002038137900889039888
enum C_0002038137900889039888 {
Push
Pop
Clear
}
class "State::StateStack::PendingChange" as C_0000831763035971193981
class C_0000831763035971193981 {
+PendingChange() : void
+PendingChange() : void
+action : State::StateStack::Action
+stateID : States::ID
}
class "State::StaticArrayState" as C_0000980099507117347926
class C_0000980099507117347926 {
+StaticArrayState() : void
+~StaticArrayState() : void
}
class "State::HomepageState" as C_0000392594348704374101
class C_0000392594348704374101 {
+HomepageState() : void
+~HomepageState() : void
+Draw() : void
+Update() : bool
}
class "State::LLState<T>" as C_0000986421677058436509
class C_0000986421677058436509 {
+LLState<T>() : void
+~LLState<T>() : void
+Draw() : void
+Update() : bool
+SetCurrentAction() : void
+SetCurrentError() : void
+ClearError() : void
+ClearAction() : void
+Success() : void
}
class "State::LLState::IntegerInput" as C_0001880336986076333589
class C_0001880336986076333589 {
+label : std::string
+width : int
+minValue : int
+maxValue : int
}
class "State::CLLState" as C_0002032857529479228463
class C_0002032857529479228463 {
+AddInsertOperation() : void
+AddInitializeOperation() : void
+AddUpdateOperation() : void
+AddDeleteOperation() : void
+AddSearchOperation() : void
+CLLState() : void
+~CLLState() : void
}
class "State::DLLState" as C_0001990922848054987147
class C_0001990922848054987147 {
+AddInsertOperation() : void
+AddInitializeOperation() : void
+AddUpdateOperation() : void
+AddDeleteOperation() : void
+AddSearchOperation() : void
+DLLState() : void
+~DLLState() : void
}
class "State::QueueState" as C_0001222084811244305425
class C_0001222084811244305425 {
+AddInsertOperation() : void
+AddInitializeOperation() : void
+AddDeleteOperation() : void
+AddSearchOperation() : void
+QueueState() : void
+~QueueState() : void
}
class "State::SLLState" as C_0000412968630604849161
class C_0000412968630604849161 {
+SLLState() : void
+~SLLState() : void
}
class "State::StackState" as C_0000868847293084530391
class C_0000868847293084530391 {
+AddInsertOperation() : void
+AddInitializeOperation() : void
+AddDeleteOperation() : void
+AddSearchOperation() : void
+StackState() : void
+~StackState() : void
}
C_0000095408157978504173 ..> C_0001431867059143642128
C_0000095408157978504173 --> C_0001431867059143642128 : -mStack
C_0001966568901612235243 --+ C_0000095408157978504173
C_0001477210917833349544 ..> C_0001431867059143642128
C_0000095408157978504173 <|-- C_0001477210917833349544
C_0000862137238358355487 --+ C_0001477210917833349544
C_0000987619691049981455 ..> C_0001431867059143642128
C_0001431867059143642128 ..> C_0000095408157978504173
C_0001431867059143642128 o-- C_0000095408157978504173 : -mStack
C_0002038137900889039888 --+ C_0001431867059143642128
C_0000831763035971193981 --+ C_0001431867059143642128
C_0000980099507117347926 ..> C_0001431867059143642128
C_0000392594348704374101 ..> C_0001431867059143642128
C_0000095408157978504173 <|-- C_0000392594348704374101
C_0000986421677058436509 ..> C_0001431867059143642128
C_0000095408157978504173 <|-- C_0000986421677058436509
C_0001880336986076333589 --+ C_0000986421677058436509
C_0002032857529479228463 ..> C_0001431867059143642128
C_0001990922848054987147 ..> C_0001431867059143642128
C_0001222084811244305425 ..> C_0001431867059143642128
C_0000412968630604849161 ..> C_0001431867059143642128
C_0000868847293084530391 ..> C_0001431867059143642128

'Generated with clang-uml, version 0.3.4
'LLVM version clang version 15.0.7 (https://github.com/llvm/llvm-project.git 8dfdcc7b7bf66834a761bd8de445840ef68e4d1a)
@enduml
